<svg xmlns:dc="http://purl.org/dc/elements/1.1/" xmlns:cc="http://creativecommons.org/ns#" xmlns:rdf="http://www.w3.org/1999/02/22-rdf-syntax-ns#" xmlns:svg="http://www.w3.org/2000/svg" xmlns="http://www.w3.org/2000/svg" xmlns:sodipodi="http://sodipodi.sourceforge.net/DTD/sodipodi-0.dtd" xmlns:inkscape="http://www.inkscape.org/namespaces/inkscape" version="1.1" x="0px" y="0px" viewBox="0 0 100 125"><g transform="translate(0,-952.36218)"><path style="fill: #fff;text-indent:0;text-transform:none;direction:ltr;block-progression:tb;baseline-shift:baseline;color:#000000;enable-background:accumulate;" d="m 50,959.36216 c -9.3419,0 -17.8164,1.5737 -24.125,4.25 -3.1543,1.3382 -5.7604,2.94209 -7.6875,4.875 -1.9271,1.9329 -3.1875,4.30499 -3.1875,6.875 l 0,54.00004 c 0,2.57 1.2604,4.9108 3.1875,6.8438 1.9271,1.9329 4.5332,3.5368 7.6875,4.875 6.3085,2.6763 14.7831,4.2812 24.125,4.2812 9.342,0 17.8165,-1.6049 24.125,-4.2812 3.1543,-1.3382 5.7604,-2.9421 7.6875,-4.875 1.9271,-1.933 3.1875,-4.2738 3.1875,-6.8438 l 0,-54.00004 c 0,-2.5699 -1.2604,-4.9421 -3.1875,-6.875 -1.9271,-1.93291 -4.5332,-3.5368 -7.6875,-4.875 -6.3085,-2.6763 -14.783,-4.25 -24.125,-4.25 z m 0,4 c 8.8834,0 16.9274,1.54679 22.5625,3.9375 2.8176,1.19529 5.0248,2.58309 6.4375,4 1.4127,1.4169 2,2.76639 2,4.0625 0,1.2961 -0.5873,2.61429 -2,4.0312 -1.4127,1.417 -3.6199,2.8047 -6.4375,4 -5.6351,2.3907 -13.6791,3.9688 -22.5625,3.9688 -8.8834,0 -16.9273,-1.5781 -22.5625,-3.9688 -2.8176,-1.1953 -5.0248,-2.583 -6.4375,-4 -1.4127,-1.41691 -2,-2.7351 -2,-4.0312 0,-1.29611 0.5873,-2.6456 2,-4.0625 1.4127,-1.41691 3.6199,-2.80471 6.4375,-4 5.6352,-2.39071 13.6791,-3.9375 22.5625,-3.9375 z m -31,19.625 c 1.823,1.5949 4.1482,2.9369 6.875,4.0938 6.3086,2.67629 14.7831,4.2812 24.125,4.2812 9.342,0 17.8165,-1.60491 24.125,-4.2812 2.7268,-1.1569 5.052,-2.49891 6.875,-4.0938 l 0,10.375 c 0,1.2961 -0.5873,2.6145 -2,4.0312 -1.4127,1.4172 -3.6199,2.80494 -6.4375,4.00004 -5.6351,2.3909 -13.6791,3.9688 -22.5625,3.9688 -8.8834,0 -16.9273,-1.5779 -22.5625,-3.9688 -2.8176,-1.1951 -5.0248,-2.58284 -6.4375,-4.00004 -1.4127,-1.4167 -2,-2.7352 -2,-4.0312 l 0,-10.375 z m 0,18.00004 c 1.823,1.5948 4.1482,2.9368 6.875,4.0938 6.3086,2.6762 14.7831,4.2812 24.125,4.2812 9.342,0 17.8165,-1.605 24.125,-4.2812 2.7268,-1.157 5.052,-2.499 6.875,-4.0938 l 0,10.375 c 0,1.2961 -0.5873,2.6145 -2,4.0312 -1.4127,1.4172 -3.6199,2.8049 -6.4375,4 -5.6351,2.3909 -13.6791,3.9688 -22.5625,3.9688 -8.8834,0 -16.9273,-1.5779 -22.5625,-3.9688 -2.8176,-1.1951 -5.0248,-2.5828 -6.4375,-4 -1.4127,-1.4167 -2,-2.7352 -2,-4.0312 l 0,-10.375 z m 0,18 c 1.823,1.5948 4.1482,2.9368 6.875,4.0938 6.3086,2.6761 14.7831,4.2812 24.125,4.2812 9.342,0 17.8165,-1.6051 24.125,-4.2812 2.7268,-1.157 5.052,-2.499 6.875,-4.0938 l 0,10.375 c 0,1.2961 -0.5873,2.6143 -2,4.0312 -1.4127,1.417 -3.6199,2.8047 -6.4375,4 -5.6351,2.3907 -13.6791,3.9688 -22.5625,3.9688 -8.8834,0 -16.9274,-1.5781 -22.5625,-3.9688 -2.8176,-1.1953 -5.0248,-2.583 -6.4375,-4 -1.4127,-1.4169 -2,-2.7351 -2,-4.0312 l 0,-10.375 z" fill="#000000" fill-opacity="1" marker="none" visibility="visible" display="inline" overflow="visible"/></g></svg>