<svg xmlns="http://www.w3.org/2000/svg" xmlns:xlink="http://www.w3.org/1999/xlink" version="1.1" x="0px" y="0px" viewBox="0 0 48 60" enable-background="new 0 0 48 48" xml:space="preserve" style="&#10;    fill: #fff;&#10;"><g><path d="M44,6.8c-2.2,0-4,1.8-4,4c0,0.9,0.3,1.7,0.7,2.3l-8.2,7.1c-1.3-0.5-2.8-0.5-3.9,0.4l-8.4-6.3c0.3-0.6,0.5-1.3,0.5-2   c0-2.2-1.8-4-4-4s-4,1.8-4,4c0,1.1,0.4,2.1,1.2,2.8L5.1,23c-2.5-0.6-5,0.9-5.1,3.9c0,2.2,1.8,4,4,4s4-1.8,4-4   c0-1.1-0.4-2.1-1.2-2.8l8.6-7.9c1.2,0.3,2.3,0.1,3.2-0.4l8.4,6.4c-0.3,0.5-1.6,5.2,3.6,5.8c2.2,0,4-1.8,4-4c0-0.9-0.3-1.7-0.8-2.4   l8.2-7c0.5,0.3,1.1,0.4,1.8,0.4c2.2,0,4-1.8,4-4C48,8.6,46.2,6.8,44,6.8z M4,29c-1.1,0-2-0.9-2-2s0.9-2,2-2c1.1,0,2,0.9,2,2   S5.2,29,4,29z M16.6,14.4c-1.1,0-2-0.9-2-2s0.9-2,2-2s2,0.9,2,2S17.8,14.4,16.6,14.4z M30.8,25.9c-1.1,0-2-0.9-2-2s0.9-2,2-2   c1.1,0,2,0.9,2,2S31.9,25.9,30.8,25.9z M44,12.9c-1.1,0-2-0.9-2-2s0.9-2,2-2s2,0.9,2,2S45.1,12.9,44,12.9z"/><path d="M4,33.2c-0.6,0-1,0.4-1,1v6c0,0.6,0.4,1,1,1s1-0.4,1-1v-6C5,33.6,4.6,33.2,4,33.2z"/><path d="M30.7,33.2c-0.6,0-1,0.4-1,1v6c0,0.6,0.4,1,1,1s1-0.4,1-1v-6C31.7,33.6,31.2,33.2,30.7,33.2z"/><path d="M10.7,24.8c-0.6,0-1,0.4-1,1v14.4c0,0.6,0.4,1,1,1s1-0.4,1-1V25.8C11.7,25.3,11.2,24.8,10.7,24.8z"/><path d="M24,24.8c-0.6,0-1,0.4-1,1v14.4c0,0.6,0.4,1,1,1s1-0.4,1-1V25.8C25,25.3,24.6,24.8,24,24.8z"/><path d="M17.3,19.9c-0.6,0-1,0.4-1,1v19.4c0,0.6,0.4,1,1,1s1-0.4,1-1V20.9C18.3,20.3,17.9,19.9,17.3,19.9z"/><path d="M37.3,24.8c-0.6,0-1,0.4-1,1v14.4c0,0.6,0.4,1,1,1s1-0.4,1-1V25.8C38.3,25.3,37.9,24.8,37.3,24.8z"/><path d="M44,19.9c-0.6,0-1,0.4-1,1v19.4c0,0.6,0.4,1,1,1s1-0.4,1-1V20.9C45,20.3,44.5,19.9,44,19.9z"/></g>
</svg>