<svg xmlns="http://www.w3.org/2000/svg" xmlns:xlink="http://www.w3.org/1999/xlink" version="1.1" x="0px" y="0px" viewBox="0 0 99 123.75" enable-background="new 0 0 99 99" xml:space="preserve" style="&#10;    fill: #fff;&#10;"><path fill-rule="evenodd" clip-rule="evenodd" d="M96.75,54.508l-3.292-1.737L50.453,80.037L12.115,62.765l-3.291,2.036  l41.629,19.008L96.75,54.508z M96.75,48.204l-41.629-19.01l-17.434,11.05c-1.676,8.439-9.096,14.8-18.012,14.8  c-1.555,0-3.051-0.198-4.508-0.559l-6.343,4.011l41.629,19.008L96.75,48.204z M81.311,52.791l-3.012,1.915L45.806,39.708  l3.013-1.917L81.311,52.791z M87.036,48.781l-3.012,1.917L51.53,35.696l3.012-1.915L87.036,48.781z M3,36.674  C3,45.89,10.46,53.37,19.675,53.37c9.216,0,16.676-7.48,16.676-16.696s-7.46-16.696-16.676-16.696C10.46,19.979,3,27.459,3,36.674z   M25.062,33.244h2.733c0.758,0,1.376,0.617,1.376,1.375v8.24c0,0.756-0.618,1.375-1.376,1.375h-2.733  c-0.758,0-1.376-0.619-1.376-1.375v-8.24C23.685,33.861,24.304,33.244,25.062,33.244z M10.76,37.811h2.732  c0.758,0,1.377,0.619,1.377,1.377v3.672c0,0.756-0.619,1.375-1.377,1.375H10.76c-0.759,0-1.376-0.619-1.376-1.375v-3.672  C9.383,38.43,10.001,37.811,10.76,37.811z M17.621,27.739h2.733c0.758,0,1.376,0.617,1.376,1.375v13.745  c0,0.756-0.619,1.375-1.376,1.375h-2.733c-0.757,0-1.376-0.619-1.376-1.375V29.114C16.245,28.356,16.864,27.739,17.621,27.739z"/></svg>