<svg xmlns="http://www.w3.org/2000/svg" xmlns:xlink="http://www.w3.org/1999/xlink" version="1.1" x="0px" y="0px" viewBox="0 0 100 125" enable-background="new 0 0 100 100" xml:space="preserve"><g><path d="M93.711,70.213h-8.517V22.106c0-0.829-0.672-1.5-1.5-1.5H15.727c-0.829,0-1.5,0.671-1.5,1.5v48.107H5.711   c-0.552,0-1,0.447-1,1c0,3.021,2.44,7.682,5.683,7.682h78.634c3.242,0,5.683-4.66,5.683-7.682   C94.711,70.66,94.264,70.213,93.711,70.213z M17.227,23.606h64.967v46.607H17.227V23.606z M53.961,75.553h-10c-0.552,0-1-0.447-1-1   s0.448-1,1-1h10c0.553,0,1,0.447,1,1S54.514,75.553,53.961,75.553z" style="&#10;    fill: #fff;&#10;"/><path d="M79.711,25.04h-60.5c-0.276,0-0.5,0.224-0.5,0.5v41.542c0,0.276,0.224,0.5,0.5,0.5h60.5c0.276,0,0.5-0.224,0.5-0.5V25.54   C80.211,25.263,79.987,25.04,79.711,25.04z M38.324,40.602c0.12-0.009,11.596-0.965,21.334-9.646l-1.473-0.019   c-0.828-0.011-1.492-0.69-1.481-1.519c0.011-0.828,0.675-1.505,1.519-1.481l6.425,0.081c0.518,0.007,0.995,0.279,1.264,0.721   s0.29,0.991,0.058,1.454l-2.61,5.184c-0.264,0.523-0.792,0.826-1.341,0.826c-0.227,0-0.457-0.052-0.674-0.161   c-0.732-0.369-1.029-1.257-0.673-1.993c-10.259,8.59-21.614,9.508-22.13,9.545c-0.037,0.002-0.073,0.004-0.109,0.004   c-0.779,0-1.436-0.602-1.494-1.391C36.878,41.381,37.499,40.663,38.324,40.602z M66.333,62.5H64.5v1.167c0,0.828-0.672,1.5-1.5,1.5   s-1.5-0.672-1.5-1.5V62.5h-5v1.167c0,0.828-0.672,1.5-1.5,1.5s-1.5-0.672-1.5-1.5V62.5h-5v1.167c0,0.828-0.671,1.5-1.5,1.5   s-1.5-0.672-1.5-1.5V62.5h-5v1.167c0,0.828-0.671,1.5-1.5,1.5s-1.5-0.672-1.5-1.5V62.5h-3.167c-0.829,0-1.5-0.672-1.5-1.5v-2H31.5   c-0.829,0-1.5-0.672-1.5-1.5s0.671-1.5,1.5-1.5h1.333v-6H31.5c-0.829,0-1.5-0.671-1.5-1.5s0.671-1.5,1.5-1.5h1.333v-5H31.5   c-0.829,0-1.5-0.671-1.5-1.5s0.671-1.5,1.5-1.5h1.333v-5H31.5c-0.829,0-1.5-0.671-1.5-1.5s0.671-1.5,1.5-1.5h1.333v-1.667   c0-0.829,0.671-1.5,1.5-1.5s1.5,0.671,1.5,1.5V59.5H41V59c0-0.828,0.671-1.5,1.5-1.5c-0.829,0-1.5-0.672-1.5-1.5v-2   c0-0.828,0.671-1.5,1.5-1.5c-0.829,0-1.5-0.672-1.5-1.5v-2c0-0.829,0.671-1.5,1.5-1.5S44,48.171,44,49v2c0,0.828-0.671,1.5-1.5,1.5   c0.829,0,1.5,0.672,1.5,1.5v2c0,0.828-0.671,1.5-1.5,1.5c0.829,0,1.5,0.672,1.5,1.5v0.5h7.166V59c0-0.828,0.672-1.5,1.5-1.5   c-0.828,0-1.5-0.672-1.5-1.5v-2c0-0.828,0.672-1.5,1.5-1.5c-0.828,0-1.5-0.672-1.5-1.5v-2c0-0.829,0.672-1.5,1.5-1.5   c-0.828,0-1.5-0.671-1.5-1.5v-2c0-0.829,0.672-1.5,1.5-1.5s1.5,0.671,1.5,1.5v2c0,0.829-0.672,1.5-1.5,1.5   c0.828,0,1.5,0.671,1.5,1.5v2c0,0.828-0.672,1.5-1.5,1.5c0.828,0,1.5,0.672,1.5,1.5v2c0,0.828-0.672,1.5-1.5,1.5   c0.828,0,1.5,0.672,1.5,1.5v0.5H61.5V58c0-0.828,0.672-1.5,1.5-1.5c-0.828,0-1.5-0.672-1.5-1.5v-2c0-0.828,0.672-1.5,1.5-1.5   c-0.828,0-1.5-0.671-1.5-1.5v-2c0-0.829,0.672-1.5,1.5-1.5c-0.828,0-1.5-0.671-1.5-1.5v-2c0-0.829,0.672-1.5,1.5-1.5   c-0.828,0-1.5-0.671-1.5-1.5v-2c0-0.829,0.672-1.5,1.5-1.5s1.5,0.671,1.5,1.5v2c0,0.829-0.672,1.5-1.5,1.5   c0.828,0,1.5,0.671,1.5,1.5v2c0,0.829-0.672,1.5-1.5,1.5c0.828,0,1.5,0.671,1.5,1.5v2c0,0.829-0.672,1.5-1.5,1.5   c0.828,0,1.5,0.672,1.5,1.5v2c0,0.828-0.672,1.5-1.5,1.5c0.828,0,1.5,0.672,1.5,1.5v1.5h1.833c0.828,0,1.5,0.672,1.5,1.5   S67.161,62.5,66.333,62.5z" style="&#10;    fill: #fff;&#10;"/></g></svg>