<svg xmlns:dc="http://purl.org/dc/elements/1.1/" xmlns:cc="http://creativecommons.org/ns#" xmlns:rdf="http://www.w3.org/1999/02/22-rdf-syntax-ns#" xmlns:svg="http://www.w3.org/2000/svg" xmlns="http://www.w3.org/2000/svg" xmlns:sodipodi="http://sodipodi.sourceforge.net/DTD/sodipodi-0.dtd" xmlns:inkscape="http://www.inkscape.org/namespaces/inkscape" version="1.1" x="0px" y="0px" viewBox="0 0 100 125"><g transform="translate(0,-952.36218)"><path d="m 50.989866,974.36216 c -6.55875,0 -13.00632,5.3333 -13.00632,12 -3.72307,0 -7.48623,0 -11.19294,0 -0.31664,0.066 -0.59451,0.2954 -0.7191,0.5938 L 9.0632357,1026.956 c -0.2946,0.6977 0.49584,1.5689 1.2193403,1.3437 9.28674,-2.9312 18.86399,-2.458 27.16946,-1.2187 8.30546,1.239 15.20531,3.2812 19.540745,3.2812 6.16967,0 11.04541,-1.5651 16.03905,-3.0625 4.99363,-1.4974 10.11652,-2.9375 16.977,-2.9375 0.67717,0 1.20287,-0.8288 0.90669,-1.4375 l -17.00827,-36.00004 c -0.16416,-0.3372 -0.53151,-0.5651 -0.90669,-0.5625 l -9.00437,0 c 0,-6.6667 -6.44758,-12 -13.006325,-12 z m 0,9 c 2.222085,0 4.001945,1.779 4.001945,4 0,2.221 -1.77986,4 -4.001945,4 -2.22208,0 -4.00195,-1.779 -4.00195,-4 0,-2.221 1.77987,-4 4.00195,-4 z m -23.38637,5 10.53637,0 c 0.34649,2.6043 1.31591,5.28314 2.59501,8.00004 -6.52695,0.063 -12.08941,2.5198 -18.10255,3.6875 z m 36.236365,0 8.5354,0 1.25061,2.6875 c -0.86303,0.3615 -2.31273,0.5953 -4.06448,0.6875 -2.0259,0.1066 -4.37817,0.1275 -6.69075,0.4688 0.45403,-1.2881 0.78835,-2.5796 0.96922,-3.8438 z m 10.6927,4.53124 8.41033,17.8126 c -0.61212,0.5728 -1.31523,1.1687 -1.81338,1.562 -5.15871,-2.4032 -8.22671,-5.2003 -10.88028,-8.0937 -1.07829,-1.1757 -2.15003,-2.3758 -3.25158,-3.5625 l 3.93941,-6.9688 c 1.32694,-0.099 2.58266,-0.2597 3.5955,-0.75 z m -5.94039,0.875 -3.03272,5.3438 c -1.2371,-1.24 -2.5598,-2.4564 -4.09574,-3.5625 0.19624,-0.4139 0.38348,-0.8383 0.56277,-1.25 2.0005,-0.3665 4.42105,-0.4465 6.56569,-0.5313 z m -8.00389,3.5626 c 3.24762,2.3697 5.42342,5.2033 8.16022,8.1874 0.40637,0.4432 0.84414,0.8986 1.28187,1.3438 l -6.25304,5.3438 c -1.46387,-3.7747 -3.78231,-7.2035 -6.12798,-9.5626 0.53761,-0.9386 1.07704,-1.8797 1.59453,-2.8124 0.46657,-0.841 0.91351,-1.667 1.3444,-2.5 z m -18.977975,0.8437 c 0.28307,0.5545 0.57613,1.0985 0.87542,1.6563 0.78691,1.4663 1.62554,2.959 2.46995,4.4374 -1.20641,3.5968 -2.35687,6.5391 -3.97068,9.0626 -4.60297,-0.7884 -7.37996,-2.1685 -10.44257,-3.2188 2.00968,-1.1423 4.05164,-2.1386 5.81533,-2.8438 0.43991,-0.1631 0.72353,-0.6673 0.63436,-1.1277 -0.0891,-0.4605 -0.54052,-0.8224 -1.00955,-0.8097 -2.70927,1.0105 -5.45846,2.43 -7.59744,3.6877 -1.25966,-2.2993 -1.39436,-4.7009 -1.40693,-7.9062 5.1147,-0.9978 10.15034,-2.8047 14.63211,-2.9378 z m -16.63309,3.4063 c 0.0176,3.1264 0.20835,5.8523 1.68832,8.5 -2.32972,1.5209 -4.45618,3.2309 -5.97165,5.0312 -0.78281,-0.381 -1.58652,-0.748 -2.46995,-0.9688 -0.48041,-0.12 -0.98429,-0.188 -1.50073,-0.1874 l 4.97117,-11.7188 c 1.10255,-0.1739 2.19197,-0.4092 3.28284,-0.6562 z m 31.671655,2.8437 c 2.60098,2.754 5.16649,7.1519 6.1905,11.5 -4.56481,2.7684 -9.80849,6.3303 -13.725425,10.8125 -2.19934,-3.5093 -5.99967,-6.6449 -9.53588,-8.625 3.21359,-3.198 5.03663,-6.8979 6.69075,-11.5312 1.37432,2.4187 2.7113,4.8128 3.81436,7.1874 0.32689,0.7113 1.56661,0.6694 1.84464,-0.062 1.195375,-3.0413 2.938835,-6.1606 4.721055,-9.2813 z m 14.85096,3.8437 c 2.12789,1.9551 4.72548,3.843 8.19148,5.5313 -0.6957,1.8658 -0.63466,3.6261 -0.28138,5.1563 0.37293,1.6151 1.02874,3.0136 1.50073,4.3124 -1.8475,0.3951 -4.10718,0.8993 -5.47146,1.1873 -3.79167,-1.895 -8.69813,-5.893 -10.53637,-8.5938 -0.11848,-0.5532 -0.27619,-1.1082 -0.43772,-1.6562 z m -43.271035,3.2188 c 3.34834,0.9301 6.3167,2.604 11.47433,3.625 -0.70386,0.8751 -1.47091,1.7054 -2.37615,2.5 -0.4718,0.4337 -0.3509,1.3314 0.21885,1.625 3.20214,1.6003 7.14109,4.492 9.41083,7.5312 -2.79648,-0.5592 -5.84275,-1.1566 -9.19197,-1.6562 -4.97291,-0.7419 -10.4501,-1.2009 -16.10158,-0.8125 -0.53859,-1.7445 -0.57014,-5.0033 0.1876,-7.4375 1.37697,-1.7952 3.74543,-3.6872 6.37809,-5.375 z m 55.652055,1.2188 4.59598,9.7187 c -1.98412,0.064 -3.8154,0.2439 -5.5652,0.5 -0.52851,-1.5579 -1.23025,-2.9952 -1.56326,-4.4375 -0.31392,-1.3596 -0.29915,-2.6757 0.40645,-4.2812 0.79906,-0.4437 1.43213,-1.0146 2.12603,-1.5 z m -66.157155,3.375 c 0.64909,0.1621 1.41256,0.5147 2.1573,0.875 -0.68083,2.5421 -0.8737,5.3778 -0.28139,7.5624 -2.64016,0.2765 -5.31228,0.7277 -7.97262,1.4376 l 4.18953,-9.875 c 0.64422,-0.2592 1.31977,-0.1009 1.90718,0 z m 46.022365,1.5937 c 1.00941,1.3037 2.38661,2.673 3.93942,3.9687 l -3.40791,5.9688 c -2.28547,0.4648 -4.65436,0.75 -7.28479,0.75 -1.49794,0 -3.59459,-0.3342 -6.096715,-0.8125 3.612105,-4.0205 8.479415,-7.2287 12.849995,-9.875 z m 5.50268,5.2187 c 1.17588,0.8824 2.39652,1.7038 3.5955,2.4063 -2.02066,0.5502 -4.14748,1.2298 -5.90913,1.6875 z" style="fill: #fff;text-indent:0;text-transform:none;direction:ltr;block-progression:tb;baseline-shift:baseline;color:#000000;enable-background:accumulate;" fill="#000000" fill-opacity="1" stroke="none" marker="none" visibility="visible" display="inline" overflow="visible"/></g></svg>