<svg xmlns="http://www.w3.org/2000/svg" xmlns:xlink="http://www.w3.org/1999/xlink" version="1.1" x="0px" y="0px" viewBox="0 0 52 65" enable-background="new 0 0 52 52" xml:space="preserve" style="&#10;    fill: #fff;&#10;"><g><g><path d="M20.5284157,44.0601616c3.1834717,0.0557747,6.3669453,0.1115494,9.5504169,0.1673241    c-0.416666-0.4166679-0.833334-0.8333359-1.25-1.25c0.0202961,1.9962692,0.0405941,3.9925423,0.0608902,5.9888115    c0.3059006-0.401783,0.6118011-0.803566,0.9177017-1.205349c-1.5123615,0.2412415-3.0610104-0.1539688-4.5741463-0.2339134    c-1.4991455-0.0792084-3.0031986-0.0301971-4.5026608,0.0114555c0.4166679,0.4166679,0.833334,0.8333321,1.25,1.25    c-0.1317387-1.7343292-0.1644955-3.4544945-0.0988808-5.1925812c0.0607414-1.6089554-2.4393559-1.6063805-2.5,0    c-0.0656147,1.7380867-0.0328579,3.458252,0.0988808,5.1925812c0.0500774,0.6592522,0.5321217,1.2699432,1.25,1.25    c1.748806-0.0485802,3.5044708-0.1034126,5.2508926,0.0357895c1.5316601,0.1220818,2.9553757,0.3422432,4.4905128,0.0973663    c0.5289364-0.0843735,0.922821-0.7016792,0.9176998-1.205349c-0.0202961-1.9962692-0.0405941-3.9925423-0.0608902-5.9888115    c-0.0069599-0.6844788-0.5672646-1.2380409-1.25-1.25c-3.1834717-0.0557747-6.3669453-0.1115494-9.5504169-0.1673241    C18.9190636,41.5319672,18.9188328,44.0319633,20.5284157,44.0601616L20.5284157,44.0601616z"/></g><g><g><path d="M24.0958157,8.7616291c0.0161076,10.6389065,0.0322151,21.277813,0.0483246,31.9167194     c0.0024357,1.6085205,2.5024395,1.6113968,2.5,0c-0.0161095-10.6389065-0.032217-21.277813-0.0483246-31.9167194     C26.59338,7.1531067,24.0933743,7.1502318,24.0958157,8.7616291L24.0958157,8.7616291z"/></g><g><path d="M37.9444695,15.9283695c1.9168625-0.0001097,3.833725-0.0002184,5.7505836-0.0003281     c-0.3597794-0.2063675-0.7195587-0.412734-1.0793381-0.6191015c0.2827568,0.6435928,0.0803604,1.712697,0.0797386,2.396903     c-0.0007782,0.851757-0.0015564,1.7035122-0.0023346,2.5552673c0.2063637-0.3597794,0.4127312-0.7195587,0.6190987-1.0793381     c-0.1671143,0.0872288-0.8663788-0.0022831-1.0136986-0.0023499c-0.4559937-0.0002079-0.9119835-0.0004139-1.3679771-0.0006218     c-0.9119835-0.0004139-1.823967-0.0008278-2.7359505-0.0012417c0.3597794,0.2063675,0.7195587,0.4127331,1.0793381,0.6191006     c-0.1810493-0.3680935,0.0021515-1.4511471,0.0027237-1.8765049c0.0009613-0.7194786,0.0019226-1.4389572,0.0028877-2.1584349     c0.0021515-1.6087208-2.4978447-1.6111994-2.5,0c-0.0021706,1.6212492-0.3973961,3.8062449,0.3357086,5.2967386     c0.1903496,0.3869972,0.6636047,0.6189117,1.0793419,0.6191006c1.2159767,0.0005512,2.4319572,0.0011044,3.647934,0.0016556     c0.9426765,0.0004292,1.8739777,0.1088257,2.7314911-0.3387661c0.3851891-0.2010555,0.6187134-0.6552944,0.6191025-1.0793381     c0.0017929-1.9631596,0.3878174-4.3781538-0.4187279-6.2139683c-0.1712112-0.3897018-0.6784515-0.6191235-1.0793381-0.6191006     c-1.9168587,0.0001097-3.8337212,0.0002184-5.7505836,0.0003281     C36.3358421,13.4284611,36.3331718,15.9284611,37.9444695,15.9283695L37.9444695,15.9283695z"/></g><g><path d="M39.4602585,21.2628269c-0.0221214,1.1842098-0.0387001,2.3676701-0.0331726,3.5521431     c0.0037613,0.8061981,0.3258667,2.7998848,0.0663185,3.5516777c-0.6325302,1.83214-4.4504738,2.2162838-6.0260849,2.7563     c-3.247673,1.1130943-4.6569004,3.8004379-7.4784851,5.4994087c-1.3767242,0.8289719-0.1213551,2.9915199,1.261797,2.1586761     c1.6590424-0.9989624,2.7312908-2.4677925,4.1590862-3.7279701c2.3090515-2.0379791,5.7308846-2.2508316,8.5147743-3.3351021     c1.2013321-0.4678955,1.839901-0.6947708,2.0907974-2.0018559c0.493927-2.5731831-0.1044426-5.8079929-0.0550308-8.4532776     C41.9903145,19.6534634,39.4903183,19.6533928,39.4602585,21.2628269L39.4602585,21.2628269z"/></g><g><path d="M8.8054352,16.7645779c-0.0367241,2.9546242-1.2017951,7.9230537,1.5307674,10.044836     c3.7709312,2.9280567,8.8485832,4.9576588,13.1217117,7.0416794c1.4403667,0.7024727,2.7091961-1.4527779,1.2617989-2.1586781     c-3.1781216-1.5499802-6.3199406-3.1697159-9.4099636-4.8891029c-1.7557821-0.9769726-3.5837803-1.6503487-4.0814219-3.8350296     c-0.4117031-1.8073997,0.0538034-4.3287849,0.0771074-6.2037048C11.3254375,15.1553345,8.825449,15.1543961,8.8054352,16.7645779     L8.8054352,16.7645779z"/></g><g><path d="M24.27178,3.5069687c1.7125149,2.2536905,3.6238251,4.2391005,5.8645821,5.9745779     c0.2946281-0.7112951,0.5892563-1.4225893,0.8838844-2.133884c-3.6965618-0.0058661-7.3925476-0.0468211-11.0883293-0.1228685     c0.2102985,0.7764459,0.420599,1.5528922,0.6308994,2.3293386c2.1506596-1.3273945,4.2552395-2.7671819,5.2759285-5.1689634     c0.6221027-1.463871-1.5307617-2.7393425-2.1586781-1.2617977c-0.858572,2.0203087-2.5720196,3.1567786-4.3790493,4.2720842     c-1.0577183,0.6528282-0.6185818,2.303628,0.6308994,2.329339c3.6957836,0.0760469,7.3917694,0.1170015,11.0883293,0.1228685     c0.9849911,0.0015631,1.778471-1.44102,0.8838825-2.133884c-2.0573215-1.5934057-3.897234-3.3939967-5.4736729-5.4686079     C25.4696026,0.980675,23.2975445,2.2248628,24.27178,3.5069687L24.27178,3.5069687z"/></g><g><path d="M10.5727139,13.4743671c0.1360722,0.1071644,0.1236305,0.5082941-0.0631065,0.7286119     c-0.3210926,0.3788347-0.8086824,0.0599136-1.2238026,0.1238604c-0.1941376-0.0849991-0.2317533-0.0838089-0.1128483,0.0035715     c0.1251383,0.1370573,0.1442194,0.0498066,0.0572462-0.2617531c0.0285454-0.293643-0.0295477-0.5992012-0.0228224-0.8951149     c0.0029249-0.1287012,0.1233025-0.9400816,0.288311-0.5722103c0.2784462,0.6207705,1.1688662,0.756526,1.7102375,0.4484386     c0.6379738-0.363061,0.7231016-1.0979013,0.4484386-1.7102365c-0.8022537-1.7885532-3.2986956-1.6339693-4.3617768-0.2120762     c-0.5456243,0.7297831-0.5977449,1.5807076-0.5755157,2.4626331c0.0229344,0.9099035-0.0102963,1.8345795,0.6973948,2.5159302     c1.1446943,1.102087,3.6206818,1.0856915,4.751524-0.0069809c1.0912895-1.0544548,1.4996996-3.3487587,0.1744871-4.3924408     c-0.5342731-0.4207706-1.2448511-0.511591-1.767767,0C10.1338673,12.1359415,10.043354,13.0574656,10.5727139,13.4743671     L10.5727139,13.4743671z"/></g></g></g></svg>