<svg xmlns="http://www.w3.org/2000/svg" xmlns:xlink="http://www.w3.org/1999/xlink" version="1.1" x="0px" y="0px" viewBox="0 0 128 160" style="fill: #fff;enable-background:new 0 0 128 128;" xml:space="preserve"><path d="M36.4091873,77.3974991c2.5102005-0.910202,4.5150986-2.7432022,5.6464996-5.1621017  c1.1308022-2.4189987,1.2523994-5.1328964,0.3418007-7.6436005C40.9682884,60.6493988,37.1918869,58,33.0014877,58  c-1.1597004,0-2.3066998,0.2030983-3.408699,0.6025009c-2.510788,0.9101982-4.5165997,2.7431984-5.6480007,5.1620979  c-1.1313,2.4190025-1.2528992,5.1329002-0.3423004,7.6436043C25.0321884,75.3506012,28.808588,78,32.9994888,78  C34.1591873,78,35.3065872,77.7968979,36.4091873,77.3974991z"/><path d="M31.9853878,123.2686005l86.4956131-31.4258041c4.1351852-1.5019989,6.2933807-6.1161957,4.7958832-10.2538986  l-21.0201035-58.0663986c-1.1737823-3.2441998-4.2606964-5.2695999-7.532196-5.2695999  c-0.9013977,0-1.8169022,0.1543007-2.7099991,0.4785004L5.5190001,50.1571999  c-4.1352115,1.5019989-6.2934113,6.1161995-4.7959113,10.2538986l21.0200996,58.0664024  c1.173811,3.2442017,4.2606983,5.2695999,7.5321999,5.2695999  C30.1762886,123.7471008,31.0922871,123.5927963,31.9853878,123.2686005z M91.0224838,74.4785004l12.3890991-35.6455002  l1.8858032,0.6679993l-13.0660019,37.555603L63.1171875,66.3086014l-19.4351006,49.9276962l-1.8642006-0.7225952L61.9638863,63.75  L91.0224838,74.4785004z M21.7221889,72.089798c-2.2588005-6.2285004,0.9589996-13.1092987,7.1883984-15.3670998  C30.2611885,56.232399,31.6430874,56,33.0009995,56c4.9052887,0,9.5082893,3.0321999,11.2767868,7.9101982  c2.2593002,6.2285042-0.9589996,13.1093025-7.1864967,15.3670998C35.7401886,79.767601,34.3578873,80,32.9994888,80  C28.0937881,80,23.4916878,76.9688034,21.7221889,72.089798z"/><path d="M126.9794846,79.642601c0.6435165-1.1532974,1.0131989-2.4776001,1.0117035-3.8848038L127.9242859,14  c-0.0048981-4.3944998-3.5990982-7.9823999-7.9906998-7.9823999c-0.0058975,0-0.0121994,0-0.0180969,0L28,6.2245998  c-4.3999119,0.0098-7.9961109,3.6171999-7.9912109,8.0176001l0.0292988,26.7256012l16.3612995-5.9444008  C36.1459999,34.0508003,35.9984894,33.0351982,36,31.9824009C36.0087891,25.3623009,41.3769989,20,47.9955864,20  c0.0073013,0,0.0142021,0,0.0214996,0c4.7851028,0.0058994,8.8989143,2.8183994,10.8203011,6.8710995l32.0561981-11.6464996  c1.3129044-0.4765997,2.6839981-0.7186995,4.0755997-0.7186995c5.0429993,0,9.581604,3.1776991,11.2935028,7.9082003  l6.8353958,18.8817978l10.3921051-12.7245979l1.5508118,1.2636986l-11.1494141,13.6533012L126.9794846,79.642601z"/><path d="M48.0014877,22c-1.1596985,0-2.3067017,0.2031002-3.408699,0.6025009  c-2.510788,0.9101982-4.5166016,2.7431984-5.6480026,5.1620998c-0.9720993,2.0791988-1.1932983,4.3749981-0.6595993,6.5743008  l18.661602-6.780302C55.2748871,24.1952991,51.8124886,22,48.0014877,22z"/></svg>