<svg xmlns="http://www.w3.org/2000/svg" data-name="Layer 1" viewBox="0 0 99 122.9375" x="0px" y="0px" style="&#10;    fill: #fff;&#10;"><title>Artboard 64</title><path d="M49.5,45.9A3.27,3.27,0,0,0,47.85,52V78.68h3.3V52A3.27,3.27,0,0,0,49.5,45.9Z"/><path d="M49.5,26.21a23.07,23.07,0,0,0-23.12,23,22.81,22.81,0,0,0,6.78,16.24l2.34-2.33A19.74,19.74,0,1,1,69.3,49.17a19.55,19.55,0,0,1-5.8,13.91l2.34,2.33a22.81,22.81,0,0,0,6.78-16.24A23.07,23.07,0,0,0,49.5,26.21Z"/><path d="M49.5,32.78a16.38,16.38,0,0,0-11.67,28l2.35-2.34a13.18,13.18,0,1,1,18.64,0l2.35,2.34a16.38,16.38,0,0,0-11.67-28Z"/><path d="M49.5,39.34a9.82,9.82,0,0,0-7,16.79l2.35-2.33a6.58,6.58,0,1,1,9.3,0l2.35,2.33a9.82,9.82,0,0,0-7-16.79Z" style="&#10;    /* fill: #fff; */&#10;"/></svg>