<svg xmlns="http://www.w3.org/2000/svg" xmlns:xlink="http://www.w3.org/1999/xlink" version="1.0" x="0px" y="0px" viewBox="0 0 128 160" style="fill: #fff;enable-background:new 0 0 128 128;" xml:space="preserve"><g><path d="M114.2,5.2c-0.5-0.2-1-0.1-1.4,0.2c-0.4,0.3-0.6,0.7-0.6,1.2l-0.1,11.7l-4.1,0L108,6.5c0-0.5-0.2-0.9-0.6-1.2   c-0.4-0.3-0.9-0.4-1.4-0.2c-7.2,2.5-10.9,7.4-11,14.7c-0.1,7.1,3.2,12.9,8.7,15.8l-0.4,57.4c-5.6,2.8-8.9,8.6-8.9,15.7   c-0.1,7.3,3.6,12.3,10.8,14.9c0.5,0.2,1,0.1,1.4-0.2c0.4-0.3,0.6-0.7,0.6-1.2l0.1-11.7l4.1,0l-0.1,11.7c0,0.5,0.2,0.9,0.6,1.2   c0.3,0.2,0.6,0.3,0.9,0.3c0.2,0,0.3,0,0.5-0.1c7.2-2.5,10.9-7.4,11-14.7c0.1-7.1-3.2-12.9-8.7-15.8l0.4-57.4   c5.6-2.8,8.9-8.6,8.9-15.7C125,12.8,121.4,7.8,114.2,5.2z M113.9,33.4c-0.5,0.2-0.9,0.8-0.9,1.4l-0.5,59.3c0,0.6,0.3,1.1,0.9,1.4   c4.9,2.2,7.9,7.2,7.8,13.5c0,5.3-2.3,8.9-7,11.1l0.1-11c0-0.8-0.7-1.5-1.5-1.5l-7.1-0.1c0,0,0,0,0,0c-0.8,0-1.5,0.7-1.5,1.5   l-0.1,11c-4.7-2.3-6.8-5.9-6.8-11.2c0-6.2,3-11.2,8-13.3c0.5-0.2,0.9-0.8,0.9-1.4l0.5-59.3c0-0.6-0.3-1.1-0.9-1.4   c-4.9-2.2-7.9-7.2-7.8-13.5c0-5.3,2.3-8.9,7-11.1l-0.1,11c0,0.4,0.2,0.8,0.4,1.1c0.3,0.3,0.7,0.4,1.1,0.4l7.1,0.1c0,0,0,0,0,0   c0.4,0,0.8-0.2,1.1-0.4c0.3-0.3,0.4-0.7,0.4-1.1l0.1-11c4.7,2.3,6.8,5.9,6.8,11.2C121.9,26.3,118.9,31.3,113.9,33.4z"/><path d="M19.1,51.2l4.1,7c0.3,0.5,0.8,0.8,1.3,0.8h8.1c0.5,0,1-0.3,1.3-0.8l4.1-7c0.3-0.5,0.3-1,0-1.5l-4.1-7   c-0.3-0.5-0.8-0.8-1.3-0.8h-8.1c-0.5,0-1,0.3-1.3,0.8l-4.1,7C18.9,50.1,18.9,50.7,19.1,51.2z M25.4,44.9h6.4l3.2,5.5L31.7,56h-6.4   l-3.2-5.5L25.4,44.9z"/><path d="M13,50.4C13,59,19.9,66,28.5,66s15.6-7,15.6-15.6c0-4.5-2-8.9-5.4-11.8c0.9-2.5,2.2-7.3,3.1-11.2c0.4-2,0.8-4.1,0.3-6.6   c0-0.2-0.3-1-0.6-1.9c-1.9-5.8-4.9-11.2-9.1-16c-0.4-0.5-1.1-0.6-1.7-0.4c-0.6,0.2-1,0.8-1,1.4V24c0,0.2,0.1,0.5,0.2,0.7l1.4,2.8   l-1.4,2.8c-0.2,0.4-0.2,0.9,0,1.3l1.5,2.9l-0.2,0.4c-1.8-0.3-3.5-0.3-5.3,0l-0.2-0.4l1.5-2.9c0.2-0.4,0.2-0.9,0-1.3l-1.4-2.8   l1.4-2.8c0.1-0.2,0.2-0.4,0.2-0.7V3.9c0-0.6-0.4-1.2-1-1.4c-0.6-0.2-1.2,0-1.7,0.4c-4.2,4.8-7.3,10.2-9.1,16   c-0.3,0.9-0.5,1.7-0.6,1.9c-0.5,2.5-0.2,4.7,0.3,6.6c0.9,3.9,2.2,8.7,3.1,11.2C15,41.6,13,45.9,13,50.4z M21.7,38.6   c-0.1-0.2-0.2-0.4-0.3-0.6c-0.8-2.1-2.2-7.3-3.1-11.3c-0.3-1.5-0.7-3.3-0.2-5.3c0-0.1,0.2-0.8,0.5-1.6c1.3-4.1,3.3-8,5.9-11.7v15.5   l-1.6,3.2c-0.2,0.4-0.2,0.9,0,1.3l1.4,2.8l-1.4,2.8c-0.2,0.4-0.2,0.8-0.1,1.2l0.9,2.2c0.3,0.7,1,1.1,1.8,0.9c2.2-0.6,4.2-0.6,6.4,0   c0.7,0.2,1.5-0.2,1.8-0.9l0.9-2.2c0.2-0.4,0.1-0.8-0.1-1.2l-1.4-2.8l1.4-2.8c0.2-0.4,0.2-0.9,0-1.3l-1.6-3.2V8.2   c2.6,3.6,4.6,7.5,5.9,11.7c0.3,0.8,0.4,1.5,0.5,1.6c0.4,2.1,0.1,3.8-0.2,5.3C38,30.7,36.5,36,35.7,38c-0.1,0.2-0.3,0.3-0.3,0.6   c-0.2,0.6,0,1.3,0.5,1.7c3.3,2.4,5.2,6.2,5.2,10.2c0,6.9-5.6,12.6-12.6,12.6S16,57.4,16,50.4c0-4,1.9-7.8,5.2-10.2   C21.7,39.9,21.9,39.2,21.7,38.6z"/><path d="M3.9,124c0.7,1.2,1.9,2,3.2,2.4c0.3,0.1,0.7,0.1,1.1,0.1c2.1,0,4.2-1.4,5.2-3.7c0.1-0.2,0.2-0.5,0.1-0.8   c-0.8-7.7-0.4-15.4,1.3-22.9c1.9-8.3,5.2-16.1,10-23.2c0.3-0.4,0.3-0.9,0.1-1.4s-0.6-0.8-1-0.9l-0.1,0l1.7-3.2   c0.2-0.4,0.2-0.8,0.1-1.1s-0.4-0.7-0.7-0.9l-5-2.6c-0.4-0.2-0.8-0.2-1.2-0.1c-0.4,0.1-0.7,0.4-0.9,0.8l-2.8,5.4l-5.8,0   c-0.6,0-1.2,0.4-1.4,0.9c-0.2,0.6-0.1,1.2,0.3,1.6c0.7,0.7,1.3,1.4,1.8,2.3c0.4,0.7,0.8,1.4,1.1,2.1c-2.6,5.8-4.6,11.8-5.9,17.8   c-1,4.5-1.7,9.2-2,13.4c-0.2,3.4-0.2,6.9,0,10.4C2.9,121.5,3.2,122.8,3.9,124z M6.2,110c0.1-2.3,0.6-7.1,1.9-12.9   c1.4-6.1,3.4-12.1,6-17.8c0.2-0.4,0.2-0.8,0-1.1c-0.4-1.1-1-2.3-1.6-3.3c0-0.1-0.1-0.1-0.1-0.2l3.6,0c0,0,0,0,0,0   c0.6,0,1.1-0.3,1.3-0.8l2.5-4.9l2.3,1.2l-1.9,3.6c-0.2,0.4-0.2,0.9,0,1.3c0.2,0.4,0.5,0.7,0.9,0.8c-4.3,6.9-7.4,14.4-9.2,22.4   c-1.8,7.7-2.2,15.6-1.4,23.5c-0.7,1.2-1.9,1.8-2.6,1.6c-0.6-0.1-1.1-0.5-1.4-1c-0.3-0.5-0.4-1.1-0.3-1.7c0-0.1,0-0.3,0-0.5   C6,116.9,6,113.4,6.2,110z"/><path d="M53.9,109.8c-0.3-4.1-1-8.9-2-13.4c-1.4-6.1-3.4-12.1-5.9-17.8c0.3-0.7,0.7-1.5,1.1-2.1c0.5-0.8,1.1-1.6,1.8-2.3   c0.4-0.4,0.5-1.1,0.3-1.6c-0.2-0.6-0.8-0.9-1.4-0.9l-5.8,0l-2.8-5.4c-0.2-0.4-0.5-0.6-0.9-0.8c-0.4-0.1-0.8-0.1-1.2,0.1l-5,2.6   c-0.7,0.4-1,1.3-0.6,2l1.7,3.2l-0.1,0c-0.5,0.1-0.9,0.5-1,0.9s-0.1,1,0.1,1.4C37,83,40.4,90.8,42.3,99c1.7,7.5,2.2,15.2,1.3,22.9   c0,0.3,0,0.5,0.1,0.8c1,2.3,3.1,3.7,5.2,3.7c0.4,0,0.7,0,1.1-0.1c1.4-0.3,2.5-1.2,3.2-2.4c0.7-1.1,0.9-2.4,0.7-3.7   C54.1,116.8,54.1,113.3,53.9,109.8z M50.9,120.7c0.1,0.6,0.1,1.2-0.3,1.7c-0.3,0.5-0.8,0.9-1.4,1c-0.8,0.2-1.9-0.3-2.6-1.6   c0.8-7.9,0.3-15.8-1.4-23.5c-1.8-8-4.9-15.5-9.2-22.4c0.4-0.1,0.7-0.4,0.9-0.8c0.2-0.4,0.2-0.9,0-1.3l-1.9-3.6l2.3-1.2l2.5,4.9   c0.3,0.5,0.8,0.8,1.4,0.8c0,0,0,0,0,0l3.6,0c0,0.1-0.1,0.1-0.1,0.2c-0.7,1-1.2,2.1-1.6,3.3c-0.1,0.4-0.1,0.8,0,1.1   c2.6,5.8,4.6,11.8,6,17.8c1,4.3,1.6,8.9,1.9,12.9c0.2,3.4,0.2,6.8,0,10.2C50.9,120.4,50.9,120.6,50.9,120.7z"/><path d="M73,126.5c0.1,0,0.2,0,0.3,0c4,0,7.8-1.6,10.7-4.4c3-3,4.5-6.9,4.4-11l-0.9-40.9c0-0.8-0.7-1.5-1.5-1.5l-23.8-0.5   c-0.8,0-1.5,0.6-1.5,1.4l-2.7,40.8c-0.3,4.2,1.1,8.2,4,11.2S68.8,126.4,73,126.5z M61.2,110.5l2.6-39.3l20.9,0.5l0.8,39.4   c0.1,3.3-1.2,6.5-3.6,8.9c-2.4,2.4-5.5,3.6-8.9,3.6c-3.3-0.1-6.4-1.5-8.7-3.9C62.1,117,61,113.8,61.2,110.5z"/><path d="M68.5,112.1C68.5,112.1,68.6,112.1,68.5,112.1c0.8,0,1.5-0.7,1.5-1.5l0.6-28.5c0-0.8-0.6-1.5-1.5-1.5c0,0,0,0,0,0   c-0.8,0-1.5,0.7-1.5,1.5l-0.6,28.5C67,111.4,67.7,112.1,68.5,112.1z"/><path d="M69.7,66.9c0.3,0.3,0.7,0.4,1.1,0.4l5.7,0.1c0,0,0,0,0,0c0.8,0,1.5-0.7,1.5-1.5l0.4-41.2l5-3.1c0.5-0.3,0.8-0.8,0.7-1.4   L82.8,3.1c-0.1-0.8-0.7-1.4-1.5-1.4L67.1,1.5c0,0,0,0,0,0c-0.8,0-1.4,0.6-1.5,1.4L64,20c-0.1,0.6,0.2,1.1,0.7,1.4l5,3.2l-0.4,41.2   C69.3,66.2,69.4,66.6,69.7,66.9z M67.1,19.4l1.4-14.8L80,4.7L81,19.5l-5,3c-0.4,0.3-0.7,0.7-0.7,1.3L75,64.4l-2.7,0l0.4-40.6   c0-0.5-0.3-1-0.7-1.3L67.1,19.4z"/></g></svg>