<svg xmlns="http://www.w3.org/2000/svg" xmlns:xlink="http://www.w3.org/1999/xlink" version="1.1" x="0px" y="0px" viewBox="0 0 64 80" style="enable-background:new 0 0 64 64;" xml:space="preserve"><g><path d="M58.094,0.68l-4.883,3.662l-1.033,2.066l-5.914,5.914l-1.536-1.535l-2.754,2.753c-1.261-0.683-2.592-1.234-3.974-1.645V8   H26v3.896c-1.382,0.411-2.713,0.962-3.974,1.645l-2.754-2.753l-8.485,8.485l2.754,2.754c-0.683,1.262-1.233,2.593-1.646,3.974H8v12   h3.896c0.342,1.138,0.811,2.25,1.354,3.335l-10.3,10.3C1.692,52.893,1,54.564,1,56.343C1,60.014,3.986,63,7.657,63   c1.777,0,3.448-0.692,4.707-1.95L22.65,50.764c1.089,0.545,2.21,0.997,3.35,1.339V56h12v-3.896   c1.381-0.411,2.712-0.962,3.974-1.645l2.754,2.753l8.485-8.485l-2.754-2.754c0.683-1.262,1.233-2.593,1.646-3.974H56V26h-3.896   c-0.412-1.381-0.963-2.712-1.646-3.974l2.754-2.754l-1.535-1.535l5.915-5.915l2.065-1.033l3.662-4.883L58.094,0.68z M13.624,36.75   L13.43,36H10v-8h3.43l0.193-0.75c0.445-1.722,1.126-3.365,2.023-4.886l0.394-0.667l-2.425-2.425l5.657-5.657l2.425,2.425   l0.668-0.395c1.519-0.898,3.162-1.578,4.885-2.022L28,13.431V10h8v3.431l0.75,0.193c1.723,0.444,3.366,1.124,4.885,2.022   l0.668,0.395l2.425-2.425l0.121,0.121l-7.533,7.533C35.668,20.453,33.854,20,32,20c-6.617,0-12,5.383-12,12   c0,0.787,0.098,1.568,0.249,2.337l-5.516,5.516C14.27,38.84,13.895,37.802,13.624,36.75z M24.707,26.293l-1.414,1.414l1.793,1.793   l-3.052,3.052C22.023,32.368,22,32.185,22,32c0-5.514,4.486-10,10-10c1.318,0,2.618,0.263,3.824,0.762L28.5,30.086L24.707,26.293z    M10.95,59.636C10.07,60.516,8.9,61,7.657,61C5.089,61,3,58.911,3,56.343c0-1.245,0.484-2.414,1.364-3.293L26.5,30.914l2.586,2.586   L9.293,53.293l1.414,1.414L30.5,34.914l2.586,2.586L10.95,59.636z M41.24,28.174C41.739,29.38,42,30.681,42,32   c0,5.514-4.486,10-10,10c-0.185,0-0.368-0.023-0.552-0.034l3.052-3.052l1.793,1.793l1.414-1.414L33.914,35.5L41.24,28.174z    M50.385,19.272l-2.425,2.425l0.394,0.667c0.897,1.521,1.578,3.164,2.023,4.886L50.57,28H54v8h-3.43l-0.193,0.75   c-0.445,1.722-1.126,3.365-2.023,4.886l-0.394,0.667l2.425,2.425l-5.657,5.657l-2.425-2.425l-0.668,0.395   c-1.521,0.898-3.164,1.579-4.885,2.022L36,50.569V54h-8v-3.431l-0.75-0.193c-1.051-0.271-2.09-0.646-3.102-1.11l5.516-5.516   C30.432,43.902,31.212,44,32,44c6.617,0,12-5.383,12-12c0-1.854-0.453-3.669-1.269-5.317l7.533-7.533L50.385,19.272z M58.342,9.211   l-1.935,0.967L32.5,34.086L29.914,31.5L53.707,7.707l0.115-0.115l0.967-1.934l3.117-2.338l2.773,2.773L58.342,9.211z" style="&#10;    fill: #fff;&#10;"/><rect x="5.586" y="56" transform="matrix(0.7071 -0.7071 0.7071 0.7071 -38.2548 21.6447)" width="2.828" height="2" style="&#10;    fill: #fff;&#10;"/></g></svg>