<svg xmlns="http://www.w3.org/2000/svg" data-name="Layer 1" viewBox="0 0 100 125" x="0px" y="0px"><title/><path d="M40.37,23.72A11.12,11.12,0,0,0,32.05,10.2a11.32,11.32,0,0,0-13.34,8.44l-1.21,5-5.23-1.3a4.85,4.85,0,0,0-5.89,3.53L1.26,46.48a2.5,2.5,0,0,0,1.82,3,2.53,2.53,0,0,0,.6.07,2.5,2.5,0,0,0,2.42-1.9l5.09-20.5,5.15,1.28L8.22,62.75A38.47,38.47,0,0,0,9.83,86.41a4.75,4.75,0,0,0,7.48,1.86,38.48,38.48,0,0,0,12.5-20.18Zm-26,60.5a33.52,33.52,0,0,1-1.27-20.29l9.73-41,.76-3.06a6.3,6.3,0,0,1,7.37-4.77,6.12,6.12,0,0,1,4.57,7.46L24.95,66.9A33.48,33.48,0,0,1,14.34,84.22ZM86,12.23a5.88,5.88,0,0,0-7.12-4.3L46.34,16a2.5,2.5,0,0,0,1.2,4.85l32.57-8.05a.88.88,0,0,1,1.07.64l12.61,51a.88.88,0,0,1-.64,1.07l-62,15.34a2.5,2.5,0,1,0,1.2,4.85l7-1.73a2.46,2.46,0,0,0,.3.11l31.19,8a5.92,5.92,0,0,0,1.43.18,5.89,5.89,0,0,0,5.7-4.46l3.54-14.23,12.9-3.19a5.89,5.89,0,0,0,4.3-7.12ZM73,86.57a.88.88,0,0,1-.4.54.86.86,0,0,1-.65.1L49.47,81.45,76,74.91ZM67.13,26.08l-.26-1a2.5,2.5,0,1,1,4.85-1.2l.27,1.1a8.2,8.2,0,0,1,6,3.29,2.5,2.5,0,1,1-4,3A3.23,3.23,0,0,0,70.68,30c-1.56.38-2.92,1.6-2.47,3.44.12.46.47,1.9,4.34,1.82h.07c6.74-.09,8.67,3.48,9.21,5.62a7.6,7.6,0,0,1-3.77,8.56l.26,1a2.5,2.5,0,1,1-4.85,1.2l-.27-1.11a8.19,8.19,0,0,1-6.05-3.29,2.5,2.5,0,0,1,4-3,3.22,3.22,0,0,0,3.36,1.21c1.56-.38,2.92-1.6,2.47-3.44-.12-.47-.48-1.92-4.34-1.82h-.07c-6.73.09-8.67-3.48-9.2-5.62A7.61,7.61,0,0,1,67.13,26.08ZM56.34,28.71a2.5,2.5,0,0,1-1.87,3l-7.87,1.82a2.5,2.5,0,0,1-1.13-4.87l7.87-1.82A2.5,2.5,0,0,1,56.34,28.71ZM59.13,40a2.5,2.5,0,0,1-1.85,3L43.59,46.25a2.5,2.5,0,0,1-1.16-4.86l13.69-3.26A2.49,2.49,0,0,1,59.13,40Zm2.79,11.28a2.5,2.5,0,0,1-1.84,3L40.56,59a2.54,2.54,0,0,1-.59.07,2.5,2.5,0,0,1-.58-4.93l19.51-4.71A2.51,2.51,0,0,1,61.92,51.26ZM35.94,67,83.21,55.38a2.5,2.5,0,0,1,1.19,4.86L37.13,71.81A2.5,2.5,0,0,1,35.94,67Z" style="&#10;    fill: #fff;&#10;"/></svg>