<svg xmlns:dc="http://purl.org/dc/elements/1.1/" xmlns:cc="http://creativecommons.org/ns#" xmlns:rdf="http://www.w3.org/1999/02/22-rdf-syntax-ns#" xmlns:svg="http://www.w3.org/2000/svg" xmlns="http://www.w3.org/2000/svg" xmlns:sodipodi="http://sodipodi.sourceforge.net/DTD/sodipodi-0.dtd" xmlns:inkscape="http://www.inkscape.org/namespaces/inkscape" version="1.1" x="0px" y="0px" viewBox="0 0 100 125"><g transform="translate(0,-952.36218)"><path d="m 15,971.36215 70,0 c 2.8219,0 5,2.1782 5,5 l 0,52.00005 c 0,2.8218 -2.1781,5 -5,5 l -70,0 c -2.8219,0 -5,-2.1782 -5,-5 l 0,-52.00005 c 0,-2.8218 2.1781,-5 5,-5 z m 0,2 0,6 6,0 0,-6 z m 16,0 0,6 6,0 0,-6 z m 16,0 0,5.3438 c 2.0457,-0.2571 4.095,-0.2197 6,0.031 l 0,-5.375 z m 16,0 0,6 6,0 0,-6 z m 16,0 0,6 6,0 0,-6 z m -29.1875,6.1562 c -12.6671,0 -23,10.36416 -23,23.03125 0,12.6671 10.3329,23.0001 23,23.0001 12.6671,0 23,-10.333 23,-23.0001 0,-12.66709 -10.3329,-23.03125 -23,-23.03125 z M 19,981.36215 c -2.7181,0 -5,2.2818 -5,4.99996 l 0,31.99999 c 0,2.7183 2.2819,5.0001 5,5.0001 l 18.9375,0 c -2.6821,-1.5354 -5.0281,-3.5906 -6.9375,-6.0001 l -11,0 0,-29.99999 11.25,0 c 2.0155,-2.45756 4.5207,-4.49336 7.3438,-5.99996 z m 42.0625,0 c 2.823,1.5066 5.297,3.5424 7.3125,5.99996 l 11.625,0 0,29.99999 -11.375,0 c -1.9125,2.4134 -4.2499,4.4639 -6.9375,6.0001 l 19.3125,0 c 2.7181,0 5,-2.2818 5,-5.0001 l 0,-31.99999 c 0,-2.71816 -2.2819,-4.99996 -5,-4.99996 z m -11.25,4.1562 c 9.4244,0 17,7.60686 17,17.03125 0,9.4244 -7.5756,17.0001 -17,17.0001 -9.4244,0 -17,-7.5757 -17,-17.0001 0,-9.42439 7.5756,-17.03125 17,-17.03125 z m -10.3125,5.84376 0,21.99999 c 0.3509,2.2984 2.541,3.6696 4.5,2.5938 l 19,-11 c 1.8092,-1.4519 1.9036,-4.026 0,-5.18759 l -19,-11 c -2.0397,-1.059 -4.4461,0.768 -4.5,2.5938 z m 6,5.1875 10.0313,5.81249 -10.0313,5.8125 z m -30.5,28.81259 0,6 6,0 0,-6 z m 16,0 0,6 6,0 0,-6 z m 32,0 0,6 6,0 0,-6 z m 16,0 0,6 6,0 0,-6 z m -26,0.9375 c -2.0696,0.2821 -4.0731,0.2558 -6,0.031 l 0,5.0312 6,0 z" style="fill: #fff;text-indent:0;text-transform:none;direction:ltr;block-progression:tb;baseline-shift:baseline;color:#000000;enable-background:accumulate;" fill="#000000" fill-opacity="1" stroke="none" marker="none" visibility="visible" display="inline" overflow="visible"/></g></svg>