<svg xmlns:dc="http://purl.org/dc/elements/1.1/" xmlns:cc="http://creativecommons.org/ns#" xmlns:rdf="http://www.w3.org/1999/02/22-rdf-syntax-ns#" xmlns:svg="http://www.w3.org/2000/svg" xmlns="http://www.w3.org/2000/svg" xmlns:sodipodi="http://sodipodi.sourceforge.net/DTD/sodipodi-0.dtd" xmlns:inkscape="http://www.inkscape.org/namespaces/inkscape" version="1.1" x="0px" y="0px" viewBox="0 -15 100 125"><g transform="translate(0,-952.36218)"><path d="m 15,966.36215 c -5.5054098,0 -9.9999998,4.4947 -9.9999998,10 l 0,52.00005 c 0,5.5053 4.49459,10 9.9999998,10 l 70,0 c 5.50541,0 10,-4.4947 10,-10 l 0,-52.00005 c 0,-5.5053 -4.49459,-10 -10,-10 z m 0,4 70,0 c 3.35859,0 6,2.6415 6,6 l 0,52.00005 c 0,3.3585 -2.64141,6 -6,6 l -70,0 c -3.35859,0 -5.9999999,-2.6415 -5.9999999,-6 l 0,-52.00005 c 0,-3.3585 2.6414099,-6 5.9999999,-6 z m 0,3 0,6 6,0 0,-6 z m 16,0 0,6 6,0 0,-6 z m 16,0 0,6 6,0 0,-6 z m 16,0 0,6 6,0 0,-6 z m 16,0 0,6 6,0 0,-6 z m -29.1875,7.1875 c -12.12658,0 -22,9.87346 -22,21.99995 0,12.1267 9.87342,22.0001 22,22.0001 12.12658,0 22,-9.8734 22,-22.0001 0,-12.12649 -9.87342,-21.99995 -22,-21.99995 z M 19,982.36215 c -2.18141,0 -4,1.8186 -4,3.99996 l 0,32.00009 c 0,2.1814 1.81859,4 4,4 l 19.1875,0 c -1.85815,-1.0959 -3.55386,-2.4448 -5.03125,-4 l -14.15625,0 0,-32.00009 14.46875,0 c 1.55784,-1.57836 3.35746,-2.92116 5.3125,-3.99996 z m 41.84375,0 c 1.95504,1.0788 3.75466,2.4216 5.3125,3.99996 l 14.84375,0 0,32.00009 -14.53125,0 c -1.47739,1.5552 -3.1731,2.9041 -5.03125,4 l 19.5625,0 c 2.18141,0 4,-1.8186 4,-4 l 0,-32.00009 c 0,-2.18136 -1.81859,-3.99996 -4,-3.99996 z m -11.03125,2.1562 c 9.96495,0 18,8.06636 18,18.03125 0,9.965 -8.03505,17.9688 -18,17.9688 -9.96495,0 -17.96875,-8.0038 -17.96875,-17.9688 0,-9.96489 8.0038,-18.03125 17.96875,-18.03125 z m -9.3125,6.84376 0,21.99999 c 0.009,1.3918 1.79458,2.4146 3,1.7189 l 19,-11.0001 c 1.21336,-0.697 1.21336,-2.7718 0,-3.4688 l -19,-10.99999 c -1.36998,-0.654 -2.96416,0.5135 -3,1.75 z m -25.5,34.00009 0,6 6,0 0,-6 z m 16,0 0,6 6,0 0,-6 z m 16,0 0,6 6,0 0,-6 z m 16,0 0,6 6,0 0,-6 z m 16,0 0,6 6,0 0,-6 z" style="text-indent:0;text-transform:none;direction:ltr;block-progression:tb;baseline-shift:baseline;color:#000000;enable-background:accumulate;" fill="#fff" fill-opacity="1" stroke="none" marker="none" visibility="visible" display="inline" overflow="visible"/></g></svg>