<svg style="fill: #fff;" xmlns="http://www.w3.org/2000/svg" xmlns:xlink="http://www.w3.org/1999/xlink" version="1.1" x="0px" y="0px" viewBox="0 -10 50 80" enable-background="new 0 0 52 52" xml:space="preserve"><g><g><path d="M4,12.9997807C4,9.496851,5.4511719,6.20437,8.0849609,3.728296    c0.4023438-0.3779297,0.421875-1.0107422,0.0439453-1.4135742c-0.3769531-0.4013672-1.0117188-0.4213867-1.4130859-0.043457    C3.6748047,5.1286864,2,8.9392338,2,12.9997807s1.6738281,7.8706055,4.7148438,10.7285156    c0.1923828,0.1816406,0.4384766,0.2714844,0.6845703,0.2714844c0.2666016,0,0.5322266-0.105957,0.7285156-0.3149414    c0.3779297-0.4023438,0.3583984-1.0356445-0.0439453-1.4135742C5.4501953,19.7951908,4,16.5027103,4,12.9997807z"/></g><g><path d="M10.5146484,20.1570072c0.1923828,0.1816406,0.4384766,0.2714844,0.6845703,0.2714844    c0.265625,0,0.5322266-0.105957,0.7285156-0.3149414c0.3779221-0.4023438,0.3583984-1.0356445-0.0439453-1.4135742    c-1.6201172-1.5234375-2.5126953-3.5473633-2.5126953-5.699707s0.8935547-4.1767578,2.5136719-5.7001958    c0.4023438-0.3779297,0.421875-1.0107422,0.0439453-1.4135742c-0.3769531-0.4018555-1.0117188-0.4213867-1.4130859-0.043457    c-2.0273438,1.9052734-3.1445313,4.4472661-3.1445313,7.157227S8.4873047,18.2517338,10.5146484,20.1570072z"/></g><g><path d="M15,16.8567142c0.2666016,0,0.5322266-0.105957,0.7285156-0.3149414    c0.3779297-0.402832,0.3583984-1.0356445-0.0439453-1.4135742c-0.6083984-0.5722656-0.9433594-1.328125-0.9433594-2.128418    s0.3349609-1.5561523,0.9433594-2.128418c0.4023438-0.3779297,0.421875-1.0107422,0.0439453-1.4135742    c-0.3769531-0.4013672-1.0117188-0.4213867-1.4130859-0.043457c-1.015625,0.9536133-1.5742188,2.2270508-1.5742188,3.5854492    s0.5585938,2.6318359,1.5742188,3.5854492C14.5078125,16.7668705,14.7539063,16.8567142,15,16.8567142z"/></g><g><path d="M45.2841797,2.2712648c-0.4013672-0.378418-1.0351563-0.3588867-1.4130859,0.043457    s-0.3583984,1.0356445,0.0439453,1.4135742C46.5488281,6.20437,48,9.4973392,48,13.0007572    c0,3.5024414-1.4501953,6.7949219-4.0839844,9.2705078c-0.4023438,0.3779297-0.421875,1.0112305-0.0439453,1.4135742    c0.1962891,0.2094727,0.4619141,0.3149414,0.7285156,0.3149414c0.2460938,0,0.4921875-0.0898438,0.6845703-0.2714844    C48.3251953,20.8708744,50,17.0608158,50,13.0007572C50,8.9397221,48.3251953,5.1291747,45.2841797,2.2712648z"/></g><g><path d="M42.6289063,13.0002689c0,2.1523438-0.8925781,4.1762695-2.5126953,5.699707    c-0.4023438,0.3779297-0.421875,1.0112305-0.0439453,1.4135742c0.1962891,0.2089844,0.4619141,0.3149414,0.7285156,0.3149414    c0.2460938,0,0.4921875-0.0898438,0.6845703-0.2714844c2.0273438-1.9052734,3.1435547-4.4467773,3.1435547-7.1567383    s-1.1171875-5.2519536-3.1445313-7.157227c-0.4003906-0.378418-1.0361328-0.3583984-1.4130859,0.043457    c-0.3779297,0.402832-0.3583984,1.0356445,0.0439453,1.4135742C41.7353516,8.8235111,42.6289063,10.8479252,42.6289063,13.0002689    z"/></g><g><path d="M36.2714844,16.5417728C36.4677734,16.7507572,36.7333984,16.8567142,37,16.8567142    c0.2460938,0,0.4921875-0.0898438,0.6845703-0.2714844c1.015625-0.9536133,1.5742188-2.2270508,1.5742188-3.5854492    s-0.5585938-2.6318359-1.5742188-3.5854492c-0.4013672-0.378418-1.0351563-0.3579102-1.4130859,0.043457    c-0.3779297,0.402832-0.3583984,1.0356445,0.0439453,1.4135742c0.6083984,0.5722656,0.9433594,1.328125,0.9433594,2.128418    s-0.3349609,1.5561523-0.9433594,2.128418C35.9130859,15.5061283,35.8935547,16.1389408,36.2714844,16.5417728z"/></g><g><path d="M42,48.000267h-2.7109375L26.9832764,22.0827274C26.9857788,22.0539799,27,22.0291996,27,21.9997807v-3.0991211    c2.2765503-0.4653931,4.0031738-2.4899292,4.0031738-4.8987427c0-2.7600098-2.25-5-5-5c-2.7600098,0-5,2.2399902-5,5    c0,2.4076538,1.7171021,4.4316406,3.9968262,4.8983765v3.0994873c0,0.0294189,0.0142212,0.0541992,0.0167236,0.0829468    L12.7109375,48.000267H10c-0.5527344,0-1,0.4472656-1,1s0.4472656,1,1,1h3.3427734    c0.3857422,0,0.7373047-0.2226563,0.9033203-0.5712891l0.8364868-1.7617188l10.9170532-3.6135864l10.9229736,3.6245117    l0.8312988,1.7507935c0.1660156,0.3486328,0.5175781,0.5712891,0.9033203,0.5712891H42c0.5527344,0,1-0.4472656,1-1    S42.5527344,48.000267,42,48.000267z M26,41.882103l-4.2272949-2.1136475L26,38.0774155l4.2272949,1.69104L26,41.882103z     M20.8413696,35.5390244l2.7201538,1.3596802l-4.1549072,1.6619873L20.8413696,35.5390244z M30.300415,33.7314682    L25.999939,35.882103l-4.3004761-2.1502686L26,24.6745853L30.300415,33.7314682z M28.4384766,36.8987045l2.7200317-1.3599854    l1.4348755,3.0219727L28.4384766,36.8987045z M16.2694092,45.1678085l1.8744507-3.9477539l1.2070313-0.4828491    c0.0637207,0.0562744,0.1221924,0.1177979,0.2018433,0.1575928l3.8339844,1.9169922L16.2694092,45.1678085z M28.6103516,42.812767    l3.8369141-1.9179688c0.0796509-0.0397949,0.1381836-0.1013184,0.2019043-0.1575928l1.2069702,0.4828491l1.8788452,3.9569092    L28.6103516,42.812767z"/></g></g></svg>