<svg style="fill: #fff;" xmlns:dc="http://purl.org/dc/elements/1.1/" xmlns:cc="http://creativecommons.org/ns#" xmlns:rdf="http://www.w3.org/1999/02/22-rdf-syntax-ns#" xmlns:svg="http://www.w3.org/2000/svg" xmlns="http://www.w3.org/2000/svg" xmlns:sodipodi="http://sodipodi.sourceforge.net/DTD/sodipodi-0.dtd" xmlns:inkscape="http://www.inkscape.org/namespaces/inkscape" viewBox="0 0 100 125" version="1.1" x="0px" y="0px"><g><path style="color:#000000;font-style:normal;font-variant:normal;font-weight:normal;font-stretch:normal;font-size:medium;line-height:normal;font-family:sans-serif;text-indent:0;text-align:start;text-decoration:none;text-decoration-line:none;text-decoration-style:solid;text-decoration-color:#000000;letter-spacing:normal;word-spacing:normal;text-transform:none;direction:ltr;block-progression:tb;writing-mode:lr-tb;baseline-shift:baseline;text-anchor:start;white-space:normal;clip-rule:nonzero;display:inline;overflow:visible;visibility:visible;opacity:1;isolation:auto;mix-blend-mode:normal;color-interpolation:sRGB;color-interpolation-filters:linearRGB;solid-color:#000000;solid-opacity:1;fill:#000000;fill-opacity:1;fill-rule:nonzero;stroke:none;stroke-width:4;stroke-linecap:butt;stroke-linejoin:miter;stroke-miterlimit:4;stroke-dasharray:none;stroke-dashoffset:0;stroke-opacity:1;color-rendering:auto;image-rendering:auto;shape-rendering:auto;text-rendering:auto;enable-background:accumulate" d="M 53.814453 9.5625 L 44.685547 18.691406 L 12.279297 18.691406 L 12.470703 87.892578 L 14.464844 87.892578 L 78.685547 87.892578 L 89.054688 77.523438 L 89.007812 9.5625 L 53.814453 9.5625 z M 55.470703 13.5625 L 85.009766 13.5625 L 85.015625 21.685547 L 47.347656 21.685547 L 55.470703 13.5625 z M 46.347656 22.685547 L 85.015625 22.685547 L 85.052734 75.869141 L 77.029297 83.892578 L 16.458984 83.892578 L 16.291016 22.691406 L 46.341797 22.691406 L 46.347656 22.685547 z M 70.400391 28.607422 L 23.667969 43.015625 L 24.257812 44.927734 L 33.544922 75.050781 L 80.277344 60.642578 L 70.400391 28.607422 z M 64.246094 34.691406 L 65.330078 38.208984 L 68.839844 37.126953 L 74.291016 54.806641 L 70.78125 55.888672 L 71.765625 59.080078 L 67.943359 60.259766 L 66.958984 57.066406 L 63.136719 58.246094 L 64.119141 61.4375 L 60.298828 62.615234 L 59.314453 59.423828 L 55.490234 60.603516 L 56.474609 63.794922 L 52.652344 64.972656 L 51.667969 61.78125 L 47.845703 62.958984 L 48.830078 66.152344 L 45.007812 67.330078 L 44.023438 64.138672 L 40.201172 65.316406 L 41.185547 68.507812 L 37.361328 69.6875 L 36.378906 66.496094 L 35.205078 66.857422 L 29.753906 49.177734 L 30.927734 48.816406 L 29.84375 45.298828 L 33.666016 44.119141 L 34.75 47.638672 L 38.572266 46.458984 L 37.488281 42.941406 L 41.310547 41.763672 L 42.396484 45.28125 L 46.21875 44.101562 L 45.132812 40.583984 L 48.955078 39.40625 L 50.041016 42.923828 L 53.863281 41.746094 L 52.777344 38.226562 L 56.601562 37.048828 L 57.685547 40.566406 L 61.507812 39.388672 L 60.423828 35.869141 L 64.246094 34.691406 z M 46.642578 48.027344 L 49.810547 58.298828 L 57.359375 49.693359 L 46.642578 48.027344 z "/></g></svg>