<svg xmlns="http://www.w3.org/2000/svg" xmlns:xlink="http://www.w3.org/1999/xlink" version="1.1" x="0px" y="0px" viewBox="0 -5 60 90" style="enable-background:new 0 0 64 64; fill: #fff" xml:space="preserve"><style type="text/css">
	.st0{display:none;}
	.st1{display:inline;}
	.st2{fill:none;stroke:#B3B3B3;stroke-width:0.1;stroke-miterlimit:10;}
</style><g class="st0"><g class="st1"><rect x="2" y="2" class="st2" width="60" height="60"/><line class="st2" x1="32" y1="2" x2="32" y2="62"/><line class="st2" x1="62" y1="32" x2="2" y2="32"/><line class="st2" x1="2" y1="2" x2="62" y2="62"/><rect x="10" y="10" class="st2" width="44" height="44"/><line class="st2" x1="62" y1="2" x2="2" y2="62"/><line class="st2" x1="2" y1="32" x2="32" y2="2"/><line class="st2" x1="32" y1="2" x2="62" y2="32"/><line class="st2" x1="62" y1="32" x2="32" y2="62"/><line class="st2" x1="32" y1="62" x2="2" y2="32"/><circle class="st2" cx="32" cy="32" r="21"/></g></g><circle cx="7" cy="7" r="1"/><circle cx="11" cy="7" r="1"/><circle cx="15" cy="7" r="1"/><path d="M22,14H6v14h16V14z M20,26H8V16h12V26z"/><rect x="24" y="14" width="20" height="2"/><circle cx="38" cy="31" r="1"/><circle cx="44" cy="31" r="1"/><path d="M57.5,47.8c-0.5-1.7-1.7-3-3.3-3.5L47.3,42c-0.4-1.2-0.5-2.4-0.3-3.6c0.6-0.7,1-1.6,1.2-2.5l0.8-4.7V26c0-1.4-0.3-2.7-1-3.9  V5c0-1.7-1.3-3-3-3H5C3.3,2,2,3.3,2,5v57h59.3L57.5,47.8z M55.6,48.3L58.7,60H41.2l0.5-1.1l0,0l9.7-4.3l-0.8-3.4l2.8-0.3l-0.9-5.1  l1.1,0.4C54.6,46.5,55.3,47.3,55.6,48.3z M31.9,45l1.7-0.6l2.5,5.3l-4.8-0.6L31.9,45z M40.8,20c1.6,0,3.1,0.6,4.3,1.7  c1.1,1,1.7,2.5,1.8,3.9l-0.5-0.9l-1.8,0.7c-2.4,1-5,1-7.4,0l-1.8-0.7l-0.3,0.6C35.5,22.4,37.9,20.1,40.8,20z M51.1,49.1l-5.2,0.7  l2.5-5.3l2.1,0.7L51.1,49.1z M44.9,51.9l3.7-0.4l0.5,1.9L43,56.1L44.9,51.9z M41,55.6l-4.5-9.5c3,2.5,6,2.4,9-0.1L41,55.6z   M45.6,43.2c-3.1,3.7-6,3.7-9.1,0c0.4-0.9,0.6-1.9,0.7-2.8l0.4,0.4c0.7,0.8,1.7,1.2,2.8,1.2h1.5c1,0,2-0.4,2.8-1.2l0.3-0.3  C45,41.4,45.2,42.3,45.6,43.2z M46.1,35.6c-0.1,0.6-0.4,1.2-0.8,1.6l-2.2,2.2c-0.4,0.4-0.9,0.6-1.4,0.6h-1.5c-0.5,0-1-0.2-1.4-0.6  l-2.2-2.2c-0.4-0.4-0.7-1-0.8-1.6L35,30.9V30l1.4-2.8h0.1c2.9,1.1,6,1.1,8.9,0h0.1l1.4,2.8v0.9L46.1,35.6z M33.7,51.5l3.3,0.4L39,56  l-5.8-2.6L33.7,51.5z M5,4h40c0.6,0,1,0.4,1,1v5H4V5C4,4.4,4.4,4,5,4z M4,60V12h42v7.7c-1.4-1.2-3.3-1.8-5.2-1.7c-1.9,0-3.6,0.8-5,2  H24v2h10.2c-0.7,1.2-1.1,2.6-1.2,4h-9v2h9v3l0.2,1H6v2h27.6l0.3,1.9c0.1,0.7,0.5,1.5,0.9,2.1H6v2h29.1c0,0.7-0.2,1.4-0.4,2l-6,2H6v2  h19.4c-0.4,0.5-0.7,1.1-0.9,1.8L23.9,50H6v2h17.4l-2.1,8H4z M23.3,60l3-11.7c0.3-1,1-1.8,2-2.1l0.6-0.2H29v0l0.7-0.2l-0.9,5.2  l2.9,0.3l-0.9,3.4l9.4,4.1l0.6,1.3H23.3z"/></svg>